HIERARCHY
ROOT joint_Root
{
	OFFSET 0.0 0.0 0.0
	CHANNELS 6 Xposition Yposition Zposition Zrotation Xrotation Yrotation 
	JOINT Hips
	{
		OFFSET -0.726466 93.3139 -2.00062
		CHANNELS 6 Xposition Yposition Zposition Zrotation Xrotation Yrotation 
		JOINT Spine
		{
			OFFSET 15.7357 0.0 0.0
			CHANNELS 6 Xposition Yposition Zposition Zrotation Xrotation Yrotation 
			JOINT Chest
			{
				OFFSET 8.98455 -0.406207 0.0
				CHANNELS 6 Xposition Yposition Zposition Zrotation Xrotation Yrotation 
				JOINT Neck
				{
					OFFSET 16.3773 0.0 0.0
					CHANNELS 6 Xposition Yposition Zposition Zrotation Xrotation Yrotation 
					JOINT Head
					{
						OFFSET 6.45672 0.0 0.0
						CHANNELS 6 Xposition Yposition Zposition Zrotation Xrotation Yrotation 
						End Site
						{
							OFFSET 0.0 0.0 0.0
						}
					}
				}
				JOINT Shoulder_L
				{
					OFFSET 12.9942 -0.242716 4.98039
					CHANNELS 6 Xposition Yposition Zposition Zrotation Xrotation Yrotation 
					JOINT UpperArm_L
					{
						OFFSET 5.34809 0.0 0.0
						CHANNELS 6 Xposition Yposition Zposition Zrotation Xrotation Yrotation 
						JOINT LowerArm_L
						{
							OFFSET 24.3286 1.87007e-05 0.0
							CHANNELS 6 Xposition Yposition Zposition Zrotation Xrotation Yrotation 
							JOINT Hand_L
							{
								OFFSET 22.2916 0.0 0.0
								CHANNELS 6 Xposition Yposition Zposition Zrotation Xrotation Yrotation 
								End Site
								{
									OFFSET 0.0 0.0 0.0
								}
							}
						}
					}
				}
				JOINT Shoulder_R
				{
					OFFSET 12.9945 -0.242716 -4.98039
					CHANNELS 6 Xposition Yposition Zposition Zrotation Xrotation Yrotation 
					JOINT UpperArm_R
					{
						OFFSET -5.34813 0.0 0.0
						CHANNELS 6 Xposition Yposition Zposition Zrotation Xrotation Yrotation 
						JOINT LowerArm_R
						{
							OFFSET -24.3289 0.000322201 0.0
							CHANNELS 6 Xposition Yposition Zposition Zrotation Xrotation Yrotation 
							JOINT Hand_R
							{
								OFFSET -22.2915 -0.000108084 0.0
								CHANNELS 6 Xposition Yposition Zposition Zrotation Xrotation Yrotation 
								End Site
								{
									OFFSET 0.0 0.0 0.0
								}
							}
						}
					}
				}
			}
		}
		JOINT UpperLeg_L
		{
			OFFSET -2.19248 -6.46944 0.0
			CHANNELS 6 Xposition Yposition Zposition Zrotation Xrotation Yrotation 
			JOINT LowerLeg_L
			{
				OFFSET 39.0811 0.0 -1.23785e-05
				CHANNELS 6 Xposition Yposition Zposition Zrotation Xrotation Yrotation 
				JOINT Foot_L
				{
					OFFSET 40.9854 0.0 -1.26872e-05
					CHANNELS 6 Xposition Yposition Zposition Zrotation Xrotation Yrotation 
					JOINT Toes_L
					{
						OFFSET 11.7543 0.0 0.0
						CHANNELS 6 Xposition Yposition Zposition Zrotation Xrotation Yrotation 
						End Site
						{
							OFFSET 0.0 0.0 0.0
						}
					}
				}
			}
		}
		JOINT UpperLeg_R
		{
			OFFSET -2.19251 6.46944 0.0
			CHANNELS 6 Xposition Yposition Zposition Zrotation Xrotation Yrotation 
			JOINT LowerLeg_R
			{
				OFFSET -39.0811 -0.00228153 -0.0401928
				CHANNELS 6 Xposition Yposition Zposition Zrotation Xrotation Yrotation 
				JOINT Foot_R
				{
					OFFSET -40.9854 0.0 0.0
					CHANNELS 6 Xposition Yposition Zposition Zrotation Xrotation Yrotation 
					JOINT Toes_R
					{
						OFFSET -11.7543 0.0 0.0
						CHANNELS 6 Xposition Yposition Zposition Zrotation Xrotation Yrotation 
						End Site
						{
							OFFSET 0.0 0.0 0.0
						}
					}
				}
			}
		}
	}
}
MOTION
Frames:	8
Frame Time:	0.0333333
0.000000 0.000000 0.000000 0.000000 0.000000 -0.000000 -4.332400 92.205800 -1.412330 86.619400 -0.936936 1.067950 15.735700 0.000005 -0.000001 69.989200 86.350000 -66.750100 8.984550 -0.406207 -0.000000 -0.820924 -2.740040 6.456660 16.377300 -0.000001 -0.000001 0.194554 -2.539550 0.149981 6.456720 -0.000001 -0.000000 -0.021545 -1.321950 5.006160 12.994200 -0.242716 4.980390 -85.857200 -9.146170 -65.502500 5.348090 -0.000007 -0.000001 -76.775900 -57.070500 -105.355000 24.328600 0.000019 0.000005 6.338610 3.107100 -63.990000 22.291600 -0.000001 0.000005 20.411100 5.606390 -11.731900 12.994500 -0.242716 -4.980390 90.184000 -0.500622 -69.819000 -5.348130 -0.000001 -0.000004 -45.331800 75.566900 -2.213510 -24.328900 0.000322 -0.000009 17.488800 1.178010 -86.267900 -22.291500 -0.000108 -0.000004 31.461500 5.659820 -26.203900 -2.192480 -6.469440 -0.000000 -166.261000 -14.593100 -2.607580 39.081100 -0.000007 -0.000012 -0.142312 0.447707 17.634000 40.985400 -0.000006 -0.000013 -8.307700 3.370670 -61.681500 11.754300 -0.000000 0.000003 -0.000028 -0.000337 -16.590700 -2.192510 6.469440 -0.000001 179.057000 19.824400 177.555000 -39.081100 -0.002282 -0.040193 -0.034309 0.111773 18.607800 -40.985400 0.000008 0.000006 -0.591767 1.756170 -64.162900 -11.754300 -0.000006 -0.000006 -0.006189 -0.072540 -19.525500
0.000000 0.000000 0.000000 0.000000 0.000000 -0.000000 -4.315020 92.213200 -1.409070 86.642300 -0.886374 1.064090 15.735700 0.000005 -0.000001 69.926500 86.335000 -66.696900 8.984550 -0.406207 -0.000000 -0.795244 -2.756420 6.438100 16.377300 -0.000001 -0.000001 0.210375 -2.548060 0.159401 6.456720 -0.000001 -0.000000 0.024176 -1.338160 5.081180 12.994200 -0.242716 4.980390 -85.846500 -9.148540 -65.451600 5.348090 -0.000007 -0.000001 -76.771900 -56.994200 -105.292000 24.328600 0.000019 0.000005 6.379120 3.139540 -63.900600 22.291600 -0.000001 0.000005 20.211100 5.605300 -11.664100 12.994500 -0.242716 -4.980390 90.167200 -0.454703 -69.810300 -5.348130 -0.000001 -0.000004 -45.196800 75.483100 -2.322860 -24.328900 0.000322 -0.000009 17.487800 1.176020 -86.274000 -22.291500 -0.000108 -0.000004 31.366400 5.659540 -26.235900 -2.192480 -6.469440 -0.000000 -166.302000 -14.557200 -2.589130 39.081100 -0.000007 -0.000012 -0.140060 0.442384 17.568100 40.985400 -0.000006 -0.000013 -8.286810 3.418960 -61.653000 11.754300 -0.000000 0.000003 -0.000025 -0.000308 -16.589600 -2.192510 6.469440 -0.000001 179.028000 19.897000 177.573000 -39.081100 -0.002282 -0.040193 -0.032190 0.105706 18.570900 -40.985400 0.000008 0.000006 -0.573160 1.735620 -64.144100 -11.754300 -0.000006 -0.000006 -0.006285 -0.073399 -19.560600
0.000000 0.000000 0.000000 0.000000 0.000000 -0.000000 -4.299250 92.210300 -1.408960 86.634000 -0.834974 1.075860 15.735700 0.000005 -0.000001 70.126700 86.321600 -66.893700 8.984550 -0.406207 -0.000000 -0.761652 -2.740750 6.446000 16.377300 -0.000001 -0.000001 0.239560 -2.593460 0.161661 6.456720 -0.000001 -0.000000 0.053192 -1.401240 5.162500 12.994200 -0.242716 4.980390 -85.851700 -9.149230 -65.480700 5.348090 -0.000007 -0.000001 -76.466600 -57.033900 -104.994000 24.328600 0.000019 0.000005 6.353730 3.147130 -63.754800 22.291600 -0.000001 0.000005 20.324100 5.605700 -11.688800 12.994500 -0.242716 -4.980390 90.161500 -0.438585 -69.780000 -5.348130 -0.000001 -0.000004 -45.049600 75.452200 -2.469140 -24.328900 0.000322 -0.000009 17.449200 1.172340 -86.276900 -22.291500 -0.000108 -0.000004 31.364600 5.659190 -26.275900 -2.192480 -6.469440 -0.000000 -166.303000 -14.561400 -2.634080 39.081100 -0.000007 -0.000012 -0.140950 0.443279 17.639300 40.985400 -0.000006 -0.000013 -8.264720 3.465330 -61.673900 11.754300 -0.000000 0.000003 -0.000032 -0.000384 -16.592500 -2.192510 6.469440 -0.000001 179.023000 19.939900 177.586000 -39.081100 -0.002282 -0.040193 -0.031975 0.105000 18.581700 -40.985400 0.000008 0.000006 -0.577201 1.717970 -64.151500 -11.754300 -0.000006 -0.000006 -0.006362 -0.074086 -19.588600
0.000000 0.000000 0.000000 0.000000 0.000000 -0.000000 -4.288700 92.210900 -1.413010 86.650100 -0.743231 1.088430 15.735700 0.000005 -0.000001 70.233600 86.305300 -67.006300 8.984550 -0.406207 -0.000000 -0.726615 -2.737420 6.435270 16.377300 -0.000001 -0.000001 0.261890 -2.694530 0.195008 6.456720 -0.000001 -0.000000 0.158945 -1.524150 5.249400 12.994200 -0.242716 4.980390 -85.844200 -9.174680 -65.500900 5.348090 -0.000007 -0.000001 -76.177600 -57.008300 -104.677000 24.328600 0.000019 0.000005 6.288280 3.125220 -63.676100 22.291600 -0.000001 0.000005 20.238000 5.604480 -11.613700 12.994500 -0.242716 -4.980390 90.158400 -0.428839 -69.723600 -5.348130 -0.000001 -0.000004 -44.768700 75.464700 -2.744380 -24.328900 0.000322 -0.000009 17.518300 1.163080 -86.321700 -22.291500 -0.000108 -0.000004 31.293700 5.660460 -26.129600 -2.192480 -6.469440 -0.000000 -166.331000 -14.516000 -2.654360 39.081100 -0.000007 -0.000012 -0.141043 0.443352 17.647500 40.985400 -0.000006 -0.000013 -8.246560 3.502560 -61.667200 11.754300 -0.000000 0.000003 -0.000032 -0.000379 -16.592300 -2.192510 6.469440 -0.000001 178.999000 20.013700 177.601000 -39.081100 -0.002282 -0.040193 -0.030618 0.100884 18.595100 -40.985400 0.000008 0.000006 -0.541707 1.700360 -64.166400 -11.754300 -0.000006 -0.000006 -0.006435 -0.074738 -19.615200
0.000000 0.000000 0.000000 0.000000 0.000000 -0.000000 -4.267090 92.210500 -1.401370 86.682100 -0.659590 1.155660 15.735700 0.000005 -0.000001 70.307500 86.277300 -67.097700 8.984550 -0.406207 -0.000000 -0.670878 -2.744500 6.401300 16.377300 -0.000001 -0.000001 0.319538 -2.819730 0.227716 6.456720 -0.000001 -0.000000 0.238087 -1.720920 5.491610 12.994200 -0.242716 4.980390 -85.824500 -9.237330 -65.544200 5.348090 -0.000007 -0.000001 -75.732000 -57.040300 -104.220000 24.328600 0.000019 0.000005 6.324540 3.153570 -63.602600 22.291600 -0.000001 0.000005 20.187900 5.604570 -11.619000 12.994500 -0.242716 -4.980390 90.165300 -0.447494 -69.727700 -5.348130 -0.000001 -0.000004 -44.799600 75.457300 -2.733770 -24.328900 0.000322 -0.000009 17.471100 1.155020 -86.336700 -22.291500 -0.000108 -0.000004 31.313300 5.660330 -26.144700 -2.192480 -6.469440 -0.000000 -166.366000 -14.440100 -2.598700 39.081100 -0.000007 -0.000012 -0.140252 0.440987 17.642900 40.985400 -0.000006 -0.000013 -8.228910 3.524650 -61.671700 11.754300 -0.000000 0.000003 -0.000028 -0.000341 -16.590900 -2.192510 6.469440 -0.000001 178.908000 20.119600 177.691000 -39.081100 -0.002282 -0.040193 -0.031357 0.103076 18.596000 -40.985400 0.000008 0.000006 -0.582787 1.748590 -64.173400 -11.754300 -0.000006 -0.000006 -0.006179 -0.072455 -19.522000
0.000000 0.000000 0.000000 0.000000 0.000000 -0.000000 -4.261160 92.202200 -1.400840 86.687500 -0.570308 1.168420 15.735700 0.000005 -0.000001 70.420900 86.256400 -67.220200 8.984550 -0.406207 -0.000000 -0.626887 -2.742690 6.384340 16.377300 -0.000001 -0.000001 0.333837 -3.003580 0.373174 6.456720 -0.000001 -0.000000 0.325642 -1.991110 5.700040 12.994200 -0.242716 4.980390 -85.818600 -9.264230 -65.576000 5.348090 -0.000007 -0.000001 -75.211900 -57.052700 -103.775000 24.328600 0.000019 0.000005 6.480150 3.244580 -63.513200 22.291600 -0.000001 0.000005 20.065000 5.601820 -11.451400 12.994500 -0.242716 -4.980390 90.182500 -0.494411 -69.737000 -5.348130 -0.000001 -0.000004 -44.903900 75.390700 -2.710370 -24.328900 0.000322 -0.000009 17.470300 1.164970 -86.305000 -22.291500 -0.000108 -0.000004 31.281800 5.660240 -26.154900 -2.192480 -6.469440 -0.000000 -166.368000 -14.424200 -2.650000 39.081100 -0.000007 -0.000012 -0.141237 0.441971 17.722000 40.985400 -0.000006 -0.000013 -8.211360 3.616030 -61.696400 11.754300 -0.000000 0.000003 -0.000027 -0.000325 -16.590200 -2.192510 6.469440 -0.000001 178.884000 20.183600 177.688000 -39.081100 -0.002282 -0.040193 -0.034384 0.111743 18.647000 -40.985400 0.000008 0.000006 -0.657276 1.710440 -64.197800 -11.754300 -0.000006 -0.000006 -0.006195 -0.072594 -19.527700
0.000000 0.000000 0.000000 0.000000 0.000000 -0.000000 -4.254440 92.208000 -1.394880 86.687300 -0.446794 1.229820 15.735700 0.000005 -0.000001 70.415800 86.227600 -67.221700 8.984550 -0.406207 -0.000000 -0.572412 -2.760650 6.372190 16.377300 -0.000001 -0.000001 0.396903 -3.143820 0.429884 6.456720 -0.000001 -0.000000 0.332285 -2.185330 6.034230 12.994200 -0.242716 4.980390 -85.792200 -9.363960 -65.668300 5.348090 -0.000007 -0.000001 -74.628900 -57.093000 -103.105000 24.328600 0.000019 0.000005 6.537330 3.270850 -63.531600 22.291600 -0.000001 0.000005 19.935100 5.601790 -11.450000 12.994500 -0.242716 -4.980390 90.164200 -0.443435 -69.684100 -5.348130 -0.000001 -0.000004 -44.582000 75.402000 -2.990130 -24.328900 0.000322 -0.000009 17.424300 1.149370 -86.344100 -22.291500 -0.000108 -0.000004 31.235800 5.660850 -26.084200 -2.192480 -6.469440 -0.000000 -166.368000 -14.333900 -2.612350 39.081100 -0.000007 -0.000012 -0.141946 0.444975 17.692700 40.985400 -0.000006 -0.000013 -8.203980 3.615630 -61.668200 11.754300 -0.000000 0.000003 -0.000029 -0.000351 -16.591300 -2.192510 6.469440 -0.000001 178.879000 20.255800 177.774000 -39.081100 -0.002282 -0.040193 -0.028926 0.095662 18.630400 -40.985400 0.000008 0.000006 -0.497193 1.642620 -64.215400 -11.754300 -0.000006 -0.000006 -0.006171 -0.072380 -19.519000
0.000000 0.000000 0.000000 0.000000 0.000000 -0.000000 -4.241960 92.191200 -1.384550 86.715500 -0.362236 1.239400 15.735700 0.000005 -0.000001 70.481800 86.213200 -67.289100 8.984550 -0.406207 -0.000000 -0.542425 -2.761120 6.370140 16.377300 -0.000001 -0.000001 0.408978 -3.236550 0.522261 6.456720 -0.000001 -0.000000 0.355077 -2.305940 6.136230 12.994200 -0.242716 4.980390 -85.810000 -9.350370 -65.729100 5.348090 -0.000007 -0.000001 -73.874400 -57.067900 -102.302000 24.328600 0.000019 0.000005 6.387120 3.194280 -63.536600 22.291600 -0.000001 0.000005 19.929200 5.602600 -11.498300 12.994500 -0.242716 -4.980390 90.152800 -0.411156 -69.613500 -5.348130 -0.000001 -0.000004 -44.176200 75.340600 -3.378250 -24.328900 0.000322 -0.000009 17.365700 1.141650 -86.355600 -22.291500 -0.000108 -0.000004 31.149500 5.660770 -26.093900 -2.192480 -6.469440 -0.000000 -166.398000 -14.284500 -2.677210 39.081100 -0.000007 -0.000012 -0.142484 0.443285 17.819000 40.985400 -0.000006 -0.000013 -8.186310 3.693480 -61.735100 11.754300 -0.000000 0.000003 -0.000026 -0.000316 -16.589900 -2.192510 6.469440 -0.000001 178.805000 20.269100 177.759000 -39.081100 -0.002282 -0.040193 -0.035008 0.113138 18.716800 -40.985400 0.000008 0.000006 -0.731278 1.640730 -64.254400 -11.754300 -0.000006 -0.000006 -0.006184 -0.072496 -19.523700
